<?xml version="1.0" standalone="no"?>
<!DOCTYPE svg PUBLIC "-//W3C//DTD SVG 20010904//EN"
 "http://www.w3.org/TR/2001/REC-SVG-20010904/DTD/svg10.dtd">
<svg version="1.0" xmlns="http://www.w3.org/2000/svg"
 width="384.000000pt" height="384.000000pt" viewBox="0 0 384.000000 384.000000"
 preserveAspectRatio="xMidYMid meet">
<metadata>
Created by potrace 1.14, written by Peter Selinger 2001-2017
</metadata>
<g transform="translate(0.000000,384.000000) scale(0.100000,-0.100000)"
fill="#000000" stroke="none">
<path d="M0 1920 l0 -1920 1920 0 1920 0 0 1920 0 1920 -1920 0 -1920 0 0
-1920z m1425 588 c35 -29 64 -55 64 -58 1 -3 -96 -122 -214 -265 -118 -143
-215 -264 -215 -270 0 -5 98 -127 217 -270 l216 -259 -44 -39 c-24 -22 -59
-51 -77 -65 -33 -25 -33 -25 -52 -6 -10 10 -133 158 -274 328 -161 195 -253
313 -248 321 4 7 126 155 270 330 183 219 268 315 278 311 9 -3 44 -29 79 -58z
m1351 -250 c143 -171 264 -319 271 -328 9 -13 -32 -68 -259 -340 -148 -179
-275 -324 -283 -324 -16 2 -143 105 -144 117 -1 5 96 126 215 268 118 143 214
264 212 269 -2 5 -97 122 -213 262 -115 139 -210 258 -210 264 0 13 125 123
141 123 6 1 128 -139 270 -311z m-1158 -340 l-3 -103 -97 -3 -98 -3 0 106 0
105 100 0 101 0 -3 -102z m407 -3 l0 -100 -100 0 -100 0 -3 103 -3 103 103 -3
103 -3 0 -100z m403 3 l-3 -103 -95 0 -95 0 -3 103 -3 102 101 0 101 0 -3
-102z"/>
</g>
</svg>
