<?xml version="1.0" standalone="no"?>
<!DOCTYPE svg PUBLIC "-//W3C//DTD SVG 20010904//EN"
 "http://www.w3.org/TR/2001/REC-SVG-20010904/DTD/svg10.dtd">
<svg version="1.0" xmlns="http://www.w3.org/2000/svg"
 width="512.000000pt" height="512.000000pt" viewBox="0 0 512.000000 512.000000"
 preserveAspectRatio="xMidYMid meet">
<metadata>
Created by potrace 1.14, written by Peter Selinger 2001-2017
</metadata>
<g transform="translate(0.000000,512.000000) scale(0.100000,-0.100000)"
fill="#000000" stroke="none">
<path d="M0 2560 l0 -2560 2560 0 2560 0 0 2560 0 2560 -2560 0 -2560 0 0
-2560z m1879 798 c47 -39 92 -76 98 -82 10 -9 -53 -91 -281 -366 -251 -302
-293 -357 -282 -370 20 -23 549 -663 563 -681 10 -13 -3 -28 -87 -97 -54 -45
-102 -82 -107 -81 -4 0 -84 93 -178 206 -93 114 -239 290 -324 392 -85 102
-171 206 -192 231 l-37 45 197 237 c108 130 270 327 361 437 91 110 169 200
174 200 5 1 47 -31 95 -71z m1641 -129 c91 -110 253 -307 361 -437 l197 -237
-37 -45 c-21 -25 -107 -129 -192 -231 -85 -102 -230 -278 -324 -392 -93 -113
-174 -206 -178 -206 -5 -1 -53 36 -107 81 -84 69 -97 84 -87 97 14 18 543 658
563 681 11 13 -31 68 -281 369 -162 195 -292 357 -289 360 31 31 191 160 199
160 6 0 84 -90 175 -200z m-1360 -674 l0 -135 -135 0 -135 0 0 135 0 135 135
0 135 0 0 -135z m540 0 l0 -135 -135 0 -135 0 0 135 0 135 135 0 135 0 0 -135z
m540 0 l0 -135 -135 0 -135 0 0 135 0 135 135 0 135 0 0 -135z"/>
</g>
</svg>
